<mxfile host="Electron" modified="2024-05-13T14:07:06.682Z" agent="Mozilla/5.0 (Windows NT 10.0; Win64; x64) AppleWebKit/537.36 (KHTML, like Gecko) draw.io/24.2.5 Chrome/120.0.6099.109 Electron/28.1.0 Safari/537.36" etag="4BFH2nXpdLrIDw4kNVo0" version="24.2.5" type="device">
  <diagram name="Pagina-1" id="mD4ny_UwJCW5K_lFAApE">
    <mxGraphModel dx="1445" dy="365" grid="1" gridSize="10" guides="1" tooltips="1" connect="1" arrows="1" fold="1" page="1" pageScale="1" pageWidth="827" pageHeight="1169" math="0" shadow="0">
      <root>
        <mxCell id="0" />
        <mxCell id="1" parent="0" />
        <mxCell id="e1oyv2dLsfFQuQ4IkD5C-1" style="edgeStyle=orthogonalEdgeStyle;rounded=0;orthogonalLoop=1;jettySize=auto;html=1;exitX=0.25;exitY=0;exitDx=0;exitDy=0;entryX=0.5;entryY=1;entryDx=0;entryDy=0;endArrow=oval;endFill=0;" edge="1" parent="1" source="e1oyv2dLsfFQuQ4IkD5C-20">
          <mxGeometry relative="1" as="geometry">
            <mxPoint x="37.26000000000032" y="235.6" as="targetPoint" />
          </mxGeometry>
        </mxCell>
        <mxCell id="e1oyv2dLsfFQuQ4IkD5C-2" style="edgeStyle=orthogonalEdgeStyle;rounded=0;orthogonalLoop=1;jettySize=auto;html=1;exitX=1;exitY=0;exitDx=0;exitDy=0;entryX=0.25;entryY=1;entryDx=0;entryDy=0;endArrow=oval;endFill=0;" edge="1" parent="1" source="e1oyv2dLsfFQuQ4IkD5C-20">
          <mxGeometry relative="1" as="geometry">
            <mxPoint x="74.76000000000032" y="235.6" as="targetPoint" />
          </mxGeometry>
        </mxCell>
        <mxCell id="e1oyv2dLsfFQuQ4IkD5C-3" value="&lt;font style=&quot;font-size: 8px;&quot;&gt;Periodo storico&lt;/font&gt;" style="text;html=1;align=center;verticalAlign=middle;whiteSpace=wrap;rounded=0;" vertex="1" parent="1">
          <mxGeometry x="43.68999999999998" y="209.71" width="70" height="30" as="geometry" />
        </mxCell>
        <mxCell id="e1oyv2dLsfFQuQ4IkD5C-4" value="&lt;font style=&quot;font-size: 8px;&quot;&gt;Nome&lt;/font&gt;" style="text;html=1;align=center;verticalAlign=middle;whiteSpace=wrap;rounded=0;" vertex="1" parent="1">
          <mxGeometry x="6.189999999999987" y="209.70999999999998" width="60" height="30" as="geometry" />
        </mxCell>
        <mxCell id="e1oyv2dLsfFQuQ4IkD5C-5" value="" style="curved=1;endArrow=oval;html=1;rounded=0;entryX=0.642;entryY=0.924;entryDx=0;entryDy=0;entryPerimeter=0;endFill=1;" edge="1" parent="1">
          <mxGeometry width="50" height="50" relative="1" as="geometry">
            <mxPoint x="-2.560000000000013" y="247.89" as="sourcePoint" />
            <mxPoint x="102.38000000000015" y="235.61" as="targetPoint" />
            <Array as="points">
              <mxPoint x="47.43999999999998" y="247.89" />
              <mxPoint x="97.43999999999998" y="247.89" />
            </Array>
          </mxGeometry>
        </mxCell>
        <mxCell id="e1oyv2dLsfFQuQ4IkD5C-9" value="&lt;font style=&quot;font-size: 8px;&quot;&gt;(1,N)&lt;/font&gt;" style="text;html=1;align=center;verticalAlign=middle;whiteSpace=wrap;rounded=1;strokeColor=none;glass=0;" vertex="1" parent="1">
          <mxGeometry x="-17.37000000000002" y="289.20000000000005" width="50" height="15" as="geometry" />
        </mxCell>
        <mxCell id="e1oyv2dLsfFQuQ4IkD5C-10" value="&lt;p style=&quot;line-height: 70%;&quot;&gt;&lt;font style=&quot;font-size: 9px;&quot;&gt;Area Geografica&lt;/font&gt;&lt;/p&gt;" style="text;html=1;align=center;verticalAlign=middle;whiteSpace=wrap;rounded=0;" vertex="1" parent="1">
          <mxGeometry x="-27.74000000000002" y="300" width="60" height="30" as="geometry" />
        </mxCell>
        <mxCell id="e1oyv2dLsfFQuQ4IkD5C-11" style="edgeStyle=orthogonalEdgeStyle;rounded=0;orthogonalLoop=1;jettySize=auto;html=1;exitX=0.25;exitY=1;exitDx=0;exitDy=0;endArrow=oval;endFill=0;" edge="1" parent="1">
          <mxGeometry relative="1" as="geometry">
            <mxPoint x="19.209999999999997" y="283.1" as="sourcePoint" />
            <mxPoint x="20.3" y="308.6" as="targetPoint" />
          </mxGeometry>
        </mxCell>
        <mxCell id="e1oyv2dLsfFQuQ4IkD5C-14" value="&lt;font style=&quot;font-size: 8px;&quot;&gt;Descrizione&lt;/font&gt;" style="text;html=1;align=center;verticalAlign=middle;whiteSpace=wrap;rounded=0;" vertex="1" parent="1">
          <mxGeometry x="105" y="250" width="41.24" height="12" as="geometry" />
        </mxCell>
        <mxCell id="e1oyv2dLsfFQuQ4IkD5C-15" style="edgeStyle=orthogonalEdgeStyle;rounded=0;orthogonalLoop=1;jettySize=auto;html=1;exitX=0.25;exitY=1;exitDx=0;exitDy=0;endArrow=oval;endFill=0;" edge="1" parent="1">
          <mxGeometry relative="1" as="geometry">
            <mxPoint x="65.03000000000003" y="270.62" as="sourcePoint" />
            <mxPoint x="66.12" y="296.12" as="targetPoint" />
          </mxGeometry>
        </mxCell>
        <mxCell id="e1oyv2dLsfFQuQ4IkD5C-16" style="edgeStyle=orthogonalEdgeStyle;rounded=0;orthogonalLoop=1;jettySize=auto;html=1;exitX=1;exitY=0.75;exitDx=0;exitDy=0;endArrow=oval;endFill=0;" edge="1" parent="1" source="e1oyv2dLsfFQuQ4IkD5C-20">
          <mxGeometry relative="1" as="geometry">
            <mxPoint x="94.61000000000003" y="283.12" as="sourcePoint" />
            <mxPoint x="95.7" y="308.62" as="targetPoint" />
          </mxGeometry>
        </mxCell>
        <mxCell id="e1oyv2dLsfFQuQ4IkD5C-17" value="&lt;font style=&quot;font-size: 8px;&quot;&gt;Lingua&lt;/font&gt;" style="text;html=1;align=center;verticalAlign=middle;whiteSpace=wrap;rounded=0;" vertex="1" parent="1">
          <mxGeometry x="91.32999999999998" y="310.12" width="13.49" height="9.75" as="geometry" />
        </mxCell>
        <mxCell id="e1oyv2dLsfFQuQ4IkD5C-18" value="&lt;font style=&quot;font-size: 8px;&quot;&gt;Religione&lt;/font&gt;" style="text;html=1;align=center;verticalAlign=middle;whiteSpace=wrap;rounded=0;" vertex="1" parent="1">
          <mxGeometry x="60.15999999999999" y="296.12" width="12" height="14" as="geometry" />
        </mxCell>
        <mxCell id="e1oyv2dLsfFQuQ4IkD5C-19" style="edgeStyle=orthogonalEdgeStyle;rounded=0;orthogonalLoop=1;jettySize=auto;html=1;exitX=1;exitY=0.5;exitDx=0;exitDy=0;endArrow=oval;endFill=0;" edge="1" parent="1">
          <mxGeometry relative="1" as="geometry">
            <mxPoint x="77.24000000000002" y="257.71" as="sourcePoint" />
            <mxPoint x="100.36000000000003" y="257.71" as="targetPoint" />
          </mxGeometry>
        </mxCell>
        <mxCell id="e1oyv2dLsfFQuQ4IkD5C-20" value="CiviltÃ " style="whiteSpace=wrap;html=1;align=center;" vertex="1" parent="1">
          <mxGeometry x="16.18999999999998" y="253.10000000000002" width="70" height="30" as="geometry" />
        </mxCell>
      </root>
    </mxGraphModel>
  </diagram>
</mxfile>
